<svg width="60" height="60" viewBox="0 0 60 60" fill="none" xmlns="http://www.w3.org/2000/svg">
<path fill-rule="evenodd" clip-rule="evenodd" d="M50.6797 8.69531C45.1122 3.12769 37.5612 0 29.6875 0C21.8138 0 14.2627 3.12769 8.69531 8.69531C3.12781 14.2627 0 21.814 0 29.6875C0 37.561 3.12781 45.1123 8.69531 50.6797C14.2627 56.2473 21.8138 59.375 29.6875 59.375C37.5612 59.375 45.1122 56.2473 50.6797 50.6797C56.2472 45.1123 59.375 37.561 59.375 29.6875C59.375 21.814 56.2472 14.2627 50.6797 8.69531ZM10.905 10.905C15.8864 5.92358 22.6427 3.125 29.6875 3.125C36.7323 3.125 43.4886 5.92358 48.47 10.905C53.4514 15.8865 56.25 22.6426 56.25 29.6875C56.25 33.1758 55.563 36.6299 54.228 39.8525C52.8932 43.0752 50.9365 46.0034 48.47 48.47C46.0034 50.9365 43.0752 52.8931 39.8525 54.228C36.6298 55.563 33.1758 56.25 29.6875 56.25C22.6427 56.25 15.8864 53.4514 10.905 48.47C5.92358 43.4885 3.125 36.7324 3.125 29.6875C3.125 22.6426 5.92358 15.8865 10.905 10.905ZM37.5781 16.5886C37.7148 16.7253 37.7916 16.9109 37.7916 17.1042V20.8958C37.7916 21.0891 37.7148 21.2747 37.5781 21.4114C37.4414 21.5481 37.2559 21.625 37.0625 21.625H33.4166C33.0538 21.6233 32.7035 21.7566 32.4338 21.9993C32.1642 22.2419 31.9946 22.5764 31.9584 22.9375V26.875H36.8438C36.9115 26.8755 36.9786 26.8853 37.0433 26.9041C37.0852 26.9163 37.126 26.9321 37.1652 26.9517C37.265 27.0015 37.3521 27.0735 37.4197 27.1624C37.4873 27.251 37.5337 27.354 37.5552 27.4636C37.5767 27.573 37.5728 27.686 37.5437 27.7937L36.4938 31.5854C36.4517 31.7419 36.3584 31.8801 36.229 31.9778C36.0996 32.0754 35.9413 32.1274 35.7792 32.125H31.9584V41.8958C31.9584 42.0125 31.9304 42.1265 31.8781 42.2285C31.8438 42.2954 31.799 42.3572 31.7448 42.4114C31.608 42.5481 31.4226 42.625 31.2291 42.625H26.8541C26.6608 42.625 26.4753 42.5481 26.3386 42.4114C26.2477 42.3206 26.1833 42.2083 26.1504 42.0862C26.1337 42.0247 26.125 41.9607 26.125 41.8958V32.125H22.4791C22.2858 32.125 22.1003 32.0481 21.9636 31.9114C21.8268 31.7747 21.75 31.5891 21.75 31.3958V27.6042C21.75 27.4109 21.8268 27.2253 21.9636 27.0886C22.1003 26.9519 22.2858 26.875 22.4791 26.875H26.125V22.9375C26.2268 21.1023 27.0508 19.3818 28.4171 18.1521C29.7833 16.9224 31.5808 16.2834 33.4166 16.375H37.0625C37.2559 16.375 37.4414 16.4519 37.5781 16.5886Z" fill="white"/>
</svg>
