<svg width="60" height="60" viewBox="0 0 60 60" fill="none" xmlns="http://www.w3.org/2000/svg">
<path fill-rule="evenodd" clip-rule="evenodd" d="M50.6797 8.69531C45.1122 3.12769 37.5612 0 29.6875 0C21.8138 0 14.2627 3.12769 8.69531 8.69531C3.12781 14.2627 0 21.814 0 29.6875C0 37.561 3.12781 45.1123 8.69531 50.6797C14.2627 56.2473 21.8138 59.375 29.6875 59.375C37.5612 59.375 45.1122 56.2473 50.6797 50.6797C56.2472 45.1123 59.375 37.561 59.375 29.6875C59.375 21.814 56.2472 14.2627 50.6797 8.69531ZM10.905 10.905C15.8864 5.92358 22.6427 3.125 29.6875 3.125C36.7323 3.125 43.4886 5.92358 48.47 10.905C53.4514 15.8865 56.25 22.6426 56.25 29.6875C56.25 33.1758 55.563 36.6299 54.228 39.8525C52.8932 43.0752 50.9365 46.0034 48.47 48.47C46.0034 50.9365 43.0752 52.8931 39.8525 54.228C36.6298 55.563 33.1758 56.25 29.6875 56.25C22.6427 56.25 15.8864 53.4514 10.905 48.47C5.92358 43.4885 3.125 36.7324 3.125 29.6875C3.125 22.6426 5.92358 15.8865 10.905 10.905ZM20.3474 16.5942C20.6981 16.4492 21.0739 16.3748 21.4532 16.375C21.8326 16.375 22.2084 16.4497 22.5588 16.595C22.9093 16.7402 23.2277 16.9531 23.4958 17.2214C23.764 17.4897 23.9767 17.8083 24.1216 18.1589C24.2666 18.5095 24.3411 18.8853 24.3408 19.2646C24.3408 20.8594 23.0458 22.1829 21.45 22.1829C19.8564 22.1829 18.5625 20.8594 18.5625 19.2625C18.5626 18.8831 18.6376 18.5073 18.783 18.157C18.9282 17.8064 19.1412 17.488 19.4097 17.22C19.6781 16.9517 19.9968 16.739 20.3474 16.5942ZM31.0718 26.5623C31.7389 25.3 33.1268 24.0312 35.554 24.0312C40.6027 24.0312 41.5312 27.2949 41.5312 31.613V40.4375H36.547V32.6172C36.547 30.7534 36.5099 28.3635 33.9537 28.3635C31.3605 28.3635 31.203 30.3892 31.203 32.4849V40.4375H26.2188V24.3713H31.0017V26.5623H31.0718ZM18.9595 40.4375V24.3704H23.947V40.4375H18.9595Z" fill="white"/>
</svg>
