<svg width="60" height="60" viewBox="0 0 60 60" fill="none" xmlns="http://www.w3.org/2000/svg">
<path fill-rule="evenodd" clip-rule="evenodd" d="M50.9297 9.07031C45.3622 3.50269 37.8112 0.375 29.9375 0.375C22.0638 0.375 14.5127 3.50269 8.94531 9.07031C3.37781 14.6377 0.25 22.189 0.25 30.0625C0.25 37.936 3.37781 45.4873 8.94531 51.0547C14.5127 56.6223 22.0638 59.75 29.9375 59.75C37.8112 59.75 45.3622 56.6223 50.9297 51.0547C56.4972 45.4873 59.625 37.936 59.625 30.0625C59.625 22.189 56.4972 14.6377 50.9297 9.07031ZM11.155 11.28C16.1364 6.29858 22.8927 3.5 29.9375 3.5C36.9823 3.5 43.7386 6.29858 48.72 11.28C53.7014 16.2615 56.5 23.0176 56.5 30.0625C56.5 33.5508 55.813 37.0049 54.478 40.2275C53.1432 43.4502 51.1865 46.3784 48.72 48.845C46.2534 51.3115 43.3252 53.2681 40.1025 54.603C36.8798 55.938 33.4258 56.625 29.9375 56.625C22.8927 56.625 16.1364 53.8264 11.155 48.845C6.17358 43.8635 3.375 37.1074 3.375 30.0625C3.375 23.0176 6.17358 16.2615 11.155 11.28ZM27.4078 27.4065C28.2284 26.5859 29.3412 26.125 30.5015 26.125C31.6617 26.125 32.7745 26.5859 33.5951 27.4065C34.4155 28.2268 34.8765 29.3396 34.8765 30.5C34.8765 31.6604 34.4155 32.7732 33.5951 33.5935C32.7745 34.4141 31.6617 34.875 30.5015 34.875C29.3412 34.875 28.2284 34.4141 27.4078 33.5935C26.5874 32.7732 26.1265 31.6604 26.1265 30.5C26.1265 29.3396 26.5874 28.2268 27.4078 27.4065ZM35.6575 25.344C34.29 23.9766 32.4353 23.2083 30.5015 23.2083C28.5676 23.2083 26.7129 23.9766 25.3455 25.344C23.978 26.7114 23.2098 28.5662 23.2098 30.5C23.2098 32.4338 23.978 34.2886 25.3455 35.656C26.7129 37.0234 28.5676 37.7917 30.5015 37.7917C32.4353 37.7917 34.29 37.0234 35.6575 35.656C37.0249 34.2886 37.7931 32.4338 37.7931 30.5C37.7931 28.5662 37.0249 26.7114 35.6575 25.344ZM39.4467 24.1328C39.7886 23.7908 39.9806 23.3271 39.9806 22.8438C39.9806 22.3604 39.7886 21.8967 39.4467 21.5547C39.1049 21.2129 38.6412 21.0208 38.1577 21.0208C37.6742 21.0208 37.2106 21.2129 36.8687 21.5547C36.5269 21.8967 36.3348 22.3604 36.3348 22.8438C36.3348 23.3271 36.5269 23.7908 36.8687 24.1328C37.2106 24.4746 37.6742 24.6667 38.1577 24.6667C38.6412 24.6667 39.1049 24.4746 39.4467 24.1328ZM24.6259 18.918C26.3043 18.8435 26.8936 18.8333 30.5015 18.8333C34.2056 18.8333 34.7671 18.842 36.3756 18.918C37.516 18.9705 38.2831 19.1235 38.9977 19.4006C39.5935 19.6196 40.132 19.9707 40.5728 20.4272C41.0278 20.8691 41.3781 21.4072 41.5979 22.0022C41.8735 22.7139 42.0281 23.4839 42.082 24.6243C42.1565 26.303 42.1666 26.8921 42.1666 30.5C42.1666 34.2012 42.158 34.7656 42.082 36.3743C42.0295 37.5146 41.875 38.2817 41.5979 38.9993C41.3558 39.6277 41.0627 40.0842 40.5713 40.5742C40.1295 41.0293 39.5913 41.3796 38.9962 41.5994C38.2831 41.875 37.516 42.0281 36.3756 42.082C34.697 42.1565 34.1094 42.1667 30.5 42.1667C26.7972 42.1667 26.2344 42.158 24.6244 42.082C23.4868 42.0295 22.7198 41.875 21.9994 41.5964C21.3723 41.3545 20.9159 41.0613 20.4243 40.5713C19.9402 40.0872 19.6486 39.6306 19.4006 38.9963C19.125 38.2861 18.9719 37.5176 18.918 36.3757C18.8435 34.697 18.8334 34.1094 18.8334 30.5C18.8334 26.7974 18.8435 26.2344 18.9194 24.6243C18.9719 23.4824 19.125 22.7168 19.4021 22.0022C19.6213 21.4067 19.9723 20.8684 20.4287 20.4272C20.8698 19.9712 21.4082 19.6208 22.0038 19.4021C22.7155 19.125 23.4825 18.9719 24.6259 18.918ZM36.5142 16.0042C34.9581 15.9312 34.4637 15.9167 30.5015 15.9167C26.5392 15.9167 26.0448 15.9355 24.4888 16.0042C22.9357 16.0771 21.8783 16.3206 20.9493 16.6824C19.9758 17.0479 19.0939 17.6218 18.3652 18.3638C17.6227 19.092 17.0487 19.9741 16.6837 20.948C16.3221 21.8784 16.0785 22.9341 16.0056 24.4888C15.9327 26.0432 15.9181 26.5376 15.9181 30.5C15.9181 34.4624 15.9357 34.9568 16.0056 36.5112C16.0785 38.0645 16.3221 39.123 16.6837 40.052C17.0497 41.0254 17.6235 41.9072 18.3652 42.6362C19.0936 43.3784 19.9757 43.9524 20.9493 44.3176C21.8798 44.678 22.9371 44.9229 24.4888 44.9958C26.0448 45.0688 26.5392 45.0833 30.5015 45.0833C34.4637 45.0833 34.9581 45.0645 36.5142 44.9958C38.0658 44.9229 39.1246 44.678 40.0536 44.3176C41.0267 43.9514 41.9084 43.3774 42.6377 42.6362C43.3801 41.908 43.9541 41.0259 44.3192 40.052C44.6793 39.1216 44.9243 38.0645 44.9973 36.5112C45.0702 34.9568 45.0848 34.4624 45.0848 30.5C45.0848 26.5376 45.0658 26.0432 44.9973 24.4888C44.9243 22.9355 44.6793 21.877 44.3192 20.948C43.953 19.9746 43.3793 19.0928 42.6377 18.3638C41.8269 17.5544 41.016 17.0527 40.0536 16.6824C39.1246 16.3206 38.0658 16.0771 36.5142 16.0042Z" fill="white"/>
</svg>
