<?xml version="1.0" standalone="no"?>
<!DOCTYPE svg PUBLIC "-//W3C//DTD SVG 20010904//EN"
 "http://www.w3.org/TR/2001/REC-SVG-20010904/DTD/svg10.dtd">
<svg version="1.0" xmlns="http://www.w3.org/2000/svg"
 width="225.000000pt" height="342.000000pt" viewBox="0 0 225.000000 342.000000"
 preserveAspectRatio="xMidYMid meet">
<metadata>
Created by potrace 1.16, written by Peter Selinger 2001-2019
</metadata>
<g transform="translate(0.000000,342.000000) scale(0.100000,-0.100000)"
stroke="none">
<path d="M1895 3383 c-56 -12 -90 -28 -133 -62 -101 -80 -133 -229 -75 -348
68 -138 233 -198 375 -136 106 47 160 131 166 256 4 68 1 84 -22 132 -57 116
-193 185 -311 158z m160 -37 c58 -27 108 -74 138 -131 16 -30 21 -58 21 -115
0 -89 -21 -137 -83 -193 -56 -50 -95 -68 -161 -74 -106 -10 -202 41 -258 135
-24 41 -27 57 -27 132 0 68 5 93 22 125 68 127 222 181 348 121z"/>
<path d="M422 2264 c-192 -51 -336 -190 -399 -384 -27 -84 -25 -254 5 -342 31
-89 85 -171 160 -240 293 -270 782 -142 914 240 19 56 23 86 22 187 0 102 -4
130 -25 185 -67 176 -202 299 -388 354 -68 20 -216 20 -289 0z m243 -9 c282
-60 464 -301 442 -587 -11 -134 -66 -247 -168 -344 -111 -104 -221 -147 -379
-147 -90 0 -115 4 -175 27 -93 36 -151 74 -218 144 -206 217 -196 559 24 767
138 130 298 177 474 140z"/>
<path d="M1914 1732 l-250 -2 -13 -108 c-45 -378 -257 -694 -583 -866 -135
-72 -325 -126 -445 -126 -78 0 -73 20 -73 -285 0 -223 3 -275 14 -284 22 -18
208 -3 371 30 179 37 459 163 610 276 50 37 144 121 211 187 212 213 351 458
429 761 39 150 59 414 33 416 -34 4 -71 4 -304 1z m295 -31 c7 -12 7 -54 1
-122 -26 -291 -111 -530 -278 -784 -84 -128 -298 -344 -427 -431 -231 -156
-445 -239 -721 -279 -61 -9 -133 -15 -160 -13 l-49 3 0 265 0 264 35 7 c19 4
76 12 125 19 224 28 485 162 633 325 127 139 233 326 271 480 16 67 41 229 41
273 0 9 59 12 260 12 244 0 260 -1 269 -19z"/>
</g>
</svg>
