<svg width="60" height="60" viewBox="0 0 60 60" fill="none" xmlns="http://www.w3.org/2000/svg">
<path fill-rule="evenodd" clip-rule="evenodd" d="M50.6797 8.69531C45.1122 3.12769 37.5612 0 29.6875 0C21.8138 0 14.2627 3.12769 8.69531 8.69531C3.12781 14.2627 0 21.814 0 29.6875C0 37.561 3.12781 45.1123 8.69531 50.6797C14.2627 56.2473 21.8138 59.375 29.6875 59.375C37.5612 59.375 45.1122 56.2473 50.6797 50.6797C56.2472 45.1123 59.375 37.561 59.375 29.6875C59.375 21.814 56.2472 14.2627 50.6797 8.69531ZM10.905 10.905C15.8864 5.92358 22.6427 3.125 29.6875 3.125C36.7323 3.125 43.4886 5.92358 48.47 10.905C53.4514 15.8865 56.25 22.6426 56.25 29.6875C56.25 33.1758 55.563 36.6299 54.228 39.8525C52.8932 43.0752 50.9365 46.0034 48.47 48.47C46.0034 50.9365 43.0752 52.8931 39.8525 54.228C36.6298 55.563 33.1758 56.25 29.6875 56.25C22.6427 56.25 15.8864 53.4514 10.905 48.47C5.92358 43.4885 3.125 36.7324 3.125 29.6875C3.125 22.6426 5.92358 15.8865 10.905 10.905ZM42.1666 21.7563C43.4208 21.5959 44.6312 21.2605 45.7542 20.75C44.9083 22.0188 43.8583 23.1272 42.6333 24.0022C42.639 24.1096 42.6425 24.2148 42.6445 24.3196C42.6479 24.4849 42.6479 24.6492 42.6479 24.8188C42.6479 33.0874 36.3334 42.625 24.8417 42.625C21.3125 42.625 18.0167 41.5896 15.2458 39.8103C15.7417 39.8687 16.2375 39.8979 16.7333 39.8979C19.5537 39.9116 22.2949 38.9653 24.5062 37.2146C23.2017 37.1909 21.9374 36.7588 20.8911 35.9792C19.8447 35.1997 19.069 34.1121 18.673 32.8687C19.6064 33.0527 20.5698 33.0178 21.4875 32.7666C18.6292 32.198 16.4708 29.6604 16.4708 26.6272V26.5833C17.3167 27.0208 18.2792 27.3125 19.3146 27.3125C17.6229 26.2188 16.5292 24.2937 16.5292 22.1208C16.5292 20.9834 16.8354 19.9041 17.375 18.9854C20.452 22.7625 25.075 25.2563 30.2667 25.5188C30.1646 25.0667 30.1062 24.5854 30.1062 24.0896C30.1062 20.6333 32.9062 17.8333 36.3334 17.8333C38.1708 17.8333 39.7896 18.5625 40.9417 19.8167C42.3562 19.5249 43.6979 19.0146 44.9083 18.2854C44.4417 19.7583 43.45 20.9834 42.1666 21.7563Z" fill="white"/>
</svg>
